<svg xmlns="http://www.w3.org/2000/svg" viewBox="0 0 227.8 242.14"><defs><style>.cls-1{fill:#fff;stroke:#fff;stroke-miterlimit:10;}</style></defs><title>logo_white</title><g id="Livello_2" data-name="Livello 2"><g id="Layer_1" data-name="Layer 1"><g id="Layer_2" data-name="Layer 2"><g id="Layer_1-2" data-name="Layer 1-2"><path class="cls-1" d="M95.59.5a36.42,36.42,0,0,1,5.7.4,15.49,15.49,0,0,1,10.5,6.9c5.1,7.1.3,18.2,7.2,24.3,4,3.5,10.6,4.4,15.3,5.6a71.62,71.62,0,0,1,8.9,3c8.6,3.3,12.9,8.2,18.3,15.3,3.1,4.1,6,8.3,6.6,13.6.3,2.4-.2,5.3-.1,7.8a9,9,0,0,0,1,.9,8.75,8.75,0,0,0,2.2,1c2.2.9,4.6.9,6.9,1.3,4.2.8,8.4,1.4,12.6,2a30.58,30.58,0,0,1,5.9,1.7c10,3.6,16.3,5.1,23.9,12a21.81,21.81,0,0,1,6.5,19.5c-1.6,8.4-2.5,14.6-9,20.3-1.5,1.4-3.5,3.8-5.5,4.6a9.14,9.14,0,0,0,1.4.7c1,.5,1.9,1.1,2.9,1.6a3.28,3.28,0,0,1,.4,1.9c-1.3,4.5-2.7,9-4.1,13.4-1.8,5.8-2,11.8-2.4,17.8-.5,9.4-.5,19.2-3.1,28.3-4.6,16.1-20.6,25.8-35.9,29.6-13.3,3.3-27.6,3.7-41.2,5-18.8,1.7-36.7,3.1-55.6,2.5-9.9-.4-11.3-.4-20.8-1.4-8-.8-15.2-1.7-20.8-7.8-2.2-2.4-2.2-10-2.2-13.4-.2-10.7-1.1-20.5-2.2-31.1-.8-7.8-2.5-14.4-6.7-20.9-1.1-1.8-2-3.2-3.1-4.9-.2-.2-.6-.8-.4-1.1.1-.1.1-.3.2-.3a.35.35,0,0,0,.2-.1s.2-.1.3,0h.4c.7.8,1.4,1.6,2,2.4s1.5,2.3,2.4,3.6a32.92,32.92,0,0,1,5.6,13.7c1.2,8.6,2.5,17.3,3.2,25.9.4,5.4-.2,10.7.3,16.1.3,2.9,1,5.7,1.5,8.6,0,.1.3.4.5.5l3.9,3.3a48.85,48.85,0,0,0,4.8,2c4.1,1.2,5,1,10.6,1.6,7.6.8,14.4,1.1,22.1,1.3a479.26,479.26,0,0,0,54.9-2.5c13-1.3,27.2-1.5,40-4.8a59,59,0,0,0,12.3-4.7c3.7-2,6.8-3.4,10.1-6,15.7-12.5,13.4-31.6,15.1-49.6.9-9.7,3.4-18,6.4-27.3a7.1,7.1,0,0,0-1.4-1,5.56,5.56,0,0,0-1.7-.9c-.6-.1-5.1.4-4.3-1.3,0-.1,0-1.2.4-1.4a.91.91,0,0,1,1.1.3,23.6,23.6,0,0,0,2.4-1.6,22.36,22.36,0,0,0,3.7-3.2,31.66,31.66,0,0,0,6.8-8.2c.9-1.5,1-3.4,1.3-5.1.7-3.6,2.6-9.7,1.4-13.6a19.62,19.62,0,0,0-1.7-3.2c-1.1-2.2-1.9-4.6-3.3-6.6-5.4-7.1-17.6-10.1-24.9-12.8a29.09,29.09,0,0,0-5.8-1.5c-5.1-.8-15.6-1.1-20.8-3.9-4.4-2.4-2.1-6.3-2.6-10.7a24.18,24.18,0,0,0-1-3.6c-1.2-4.1-3.3-6.4-5.7-9.7s-3.6-5.3-6.5-8c-5.1-4.6-12.8-7.3-19.3-9-5.6-1.4-13.5-2.4-17.3-7.5-6.5-8.8-.2-25-13.6-28.8-14-4-34.2,4.2-37.3,19.5-1.1,5.5-1.3,14.8,4.3,18.3a19.4,19.4,0,0,0,7.7,2.5h3.2c.2,0,1.3,0,1.2.2s.9.8.7,1.2a1.43,1.43,0,0,1-1.2.6h-.1l-3.5.7a18.71,18.71,0,0,0-4,1.3c-4.8,2.4-10,6-12.9,10.6-4.1,6.6,3,16.8-5.1,21.7-5.8,3.3-11.3,2.1-17.6,2.4-8.8.4-16.8,6.1-18,15.1a25.51,25.51,0,0,0-.1,7.8,14.93,14.93,0,0,0,3.4,7.7l3.8,5.2c.2.3.7.8.7,1.2-.1.6-1.4.5-1.4,1.1,0,.9-1.8.4-2.7.6a32.55,32.55,0,0,0-4.4,1.5c-2.1.8-4.3,2-6.1,2.8-3.5,1.7-9.5,4.3-10.6,8.9,0,.1.2,1.8.3,2.6a13.68,13.68,0,0,0,1.5,3.8,2.09,2.09,0,0,0,.6.4l5.4,2.7c3.3,1.6,8.3,3.4,10.3,6.7a9.07,9.07,0,0,1,.4,1.6c0,.1.5.5.5.8,0,.6-1,1.1-1.5,1-1-.2-1-1.7-1.2-2.4a13.65,13.65,0,0,0-1.7-1.7,36.23,36.23,0,0,0-4.3-2.4c-3.2-1.7-8.3-2.7-10.3-5.6a12.61,12.61,0,0,1-1.6-4.2c-.3-1-.8-2.6-.5-3.6,2-6,7.8-8.2,13-11a37.26,37.26,0,0,1,11.5-4.3c-.6-1-1.3-1.9-2-2.9-1.4-1.8-3.2-3.4-4-5.6-2.2-5.9-1.8-15,1.5-20.4,3.6-5.8,11.1-9.2,17.7-9.5,5.6-.3,12.1,1.2,17-2.6,5.5-4.2,1.2-12.7,2.7-18.2a13.83,13.83,0,0,1,3.2-5c4.2-4.1,8-7.5,13.6-9.5.1,0-1.5-.5-2.3-.8-2.9-1.2-5.3-2.1-7-4.8-3.8-5.9-3.2-15.7-.3-21.8,6.7-14.1,23.8-19,38.3-16.1"/><path class="cls-1" d="M79.39,122.9a8.61,8.61,0,0,1,1.6,3c.4,5.1.9,10.1,1.3,15.2,1,11.1-1.5,24.3,1.4,35.6,1.5,6,8.9.3,11.3-1.3,1-.6,3-1.7,3.7-.1,1.2,2.9-6.6,6.9-9,7.5-9.3,2.3-10.5-7.7-10.6-14.4-.1-8.5.3-17.2-.3-25.8-.3-5.7-.7-11.4-1-17.1-.2-2.3,1.8-3.8,2.8-1.2"/><path class="cls-1" d="M79,101s1.7.6,1.9,1.3,0,11.9-3.3,8.7c-.2-.2-1.4-.8-1.5-1.3-.4-1.4.3-3.2.4-4.6,0-.4.2-2,.8-2.4.2-.1.9-1.5,1.5-1.7.9-.3,1.5.4,1.9,1"/><path class="cls-1" d="M140,86.9s1.5.2,2.3.4c1,.2,5.5,1.9,3.6,3.4-.9.8-2.8-.6-3.6-.8a17.63,17.63,0,0,0-8.5,1.2c-7.9,3.1-10.7,15.4-10.9,22.9-.6,18.6,4,37.1,2.2,55.8l-1.5,16c-.2,2-.3,5-1.7,6.4-.2.1-.3,1.5-.7,1.9-.9.8-3.3,1.6-4.2.4-1.3-1.7,2.6-6.7,2.8-8.9,1.2-12.7,1.6-17,2-28.9.5-16-5.2-33.8-1.7-49.8,2.4-11,12.7-26.1,25.6-18.1"/><path class="cls-1" d="M107.69,137.3h0m-1,3.5h0m32.3-2.9h.2m0,0s2.1.6,2.1,1.5-1.6,2.5-2.5,2.1c-.2-.2-1-.1-1.4-.1l-13.5,1.3c-5.2.5-12.5,1.1-17.2-1.9a3.1,3.1,0,0,1-.9-1.8c0-.9.9-1.3,1.5-1.6a1,1,0,0,1,.4-.1c-.2.2,1.4.2,1.5.8,0,.4,1.6,1,2.5,1,1.4.1,4.9.4,7.1.3,6.7-.4,13.1-.9,19.8-1.5"/><path class="cls-1" d="M142.89,91.1h0m2.3-1.5h0v-.2m-6.4-.4s-1.4.4-1.9,0c-1.1-.8-.1-2.1.8-2.5,2.4-1.1,5.5,1.4,7.4,2.9a18.77,18.77,0,0,1,1.2,3c.4,1.2,1.9,3.8,1.4,5s-3,1.9-2.3.2c.2-.2-.6-2-.9-2.9a17.68,17.68,0,0,0-1.5-3.8h0"/></g></g></g></g></svg>