<?xml version="1.0" encoding="utf-8"?>
<!-- Generator: Adobe Illustrator 21.0.0, SVG Export Plug-In . SVG Version: 6.00 Build 0)  -->
<svg version="1.1" id="Layer_1" xmlns="http://www.w3.org/2000/svg" xmlns:xlink="http://www.w3.org/1999/xlink" x="0px" y="0px"
	 viewBox="0 0 227.9 242" style="enable-background:new 0 0 227.9 242;" xml:space="preserve">
<style type="text/css">
	.st0{stroke:#000000;stroke-width:2;stroke-miterlimit:10;}
</style>
<title>logo</title>
<g id="Layer_2">
	<g id="Layer_1-2">
		<path class="st0" d="M95.7,0.5c1.9,0,3.8,0.1,5.7,0.4c4.3,0.7,8.1,3.2,10.5,6.9c5.1,7.1,0.3,18.2,7.2,24.3
			c4,3.5,10.6,4.4,15.3,5.6c3,0.8,6,1.8,8.9,3c8.6,3.3,12.9,8.2,18.3,15.3c3.1,4.1,6,8.3,6.6,13.6c0.3,2.4-0.2,5.3-0.1,7.8
			c0.3,0.3,0.6,0.6,1,0.9c0.7,0.4,1.4,0.8,2.2,1c2.2,0.9,4.6,0.9,6.9,1.3c4.2,0.8,8.4,1.4,12.6,2c2,0.4,4,0.9,5.9,1.7
			c10,3.6,16.3,5.1,23.9,12c5.3,5,7.7,12.3,6.5,19.5c-1.6,8.4-2.5,14.6-9,20.3c-1.5,1.4-3.5,3.8-5.5,4.6c0.5,0.3,0.9,0.5,1.4,0.7
			c1,0.5,1.9,1.1,2.9,1.6c0.3,0.6,0.5,1.3,0.4,1.9c-1.3,4.5-2.7,9-4.1,13.4c-1.8,5.8-2,11.8-2.4,17.8c-0.5,9.4-0.5,19.2-3.1,28.3
			c-4.6,16.1-20.6,25.8-35.9,29.6c-13.3,3.3-27.6,3.7-41.2,5c-18.8,1.7-36.7,3.1-55.6,2.5c-9.9-0.4-11.3-0.4-20.8-1.4
			c-8-0.8-15.2-1.7-20.8-7.8c-2.2-2.4-2.2-10-2.2-13.4c-0.2-10.7-1.1-20.5-2.2-31.1c-0.8-7.8-2.5-14.4-6.7-20.9
			c-1.1-1.8-2-3.2-3.1-4.9c-0.2-0.2-0.6-0.8-0.4-1.1c0.1-0.1,0.1-0.3,0.2-0.3s0.2-0.1,0.2-0.1s0.2-0.1,0.3,0c0.1,0,0.2,0,0.4,0
			c0.7,0.8,1.4,1.6,2,2.4c0.6,0.8,1.5,2.3,2.4,3.6c2.9,4.1,4.8,8.8,5.6,13.7c1.2,8.6,2.5,17.3,3.2,25.9c0.4,5.4-0.2,10.7,0.3,16.1
			c0.3,2.9,1,5.7,1.5,8.6c0,0.1,0.3,0.4,0.5,0.5c1.3,1.1,2.6,2.2,3.9,3.3c1.6,0.8,3.2,1.4,4.8,2c4.1,1.2,5,1,10.6,1.6
			c7.6,0.8,14.4,1.1,22.1,1.3c18.3,0.2,36.7-0.6,54.9-2.5c13-1.3,27.2-1.5,40-4.8c4.3-1.1,8.4-2.7,12.3-4.7c3.7-2,6.8-3.4,10.1-6
			c15.7-12.5,13.4-31.6,15.1-49.6c0.9-9.7,3.4-18,6.4-27.3c-0.4-0.4-0.9-0.7-1.4-1c-0.5-0.4-1.1-0.7-1.7-0.9
			c-0.6-0.1-5.1,0.4-4.3-1.3c0-0.1,0-1.2,0.4-1.4c0.4-0.2,0.9,0,1.1,0.3c0.1,0.1,1.6-1.1,2.4-1.6c1.3-0.9,2.6-2,3.7-3.2
			c2.7-2.3,5-5.1,6.8-8.2c0.9-1.5,1-3.4,1.3-5.1c0.7-3.6,2.6-9.7,1.4-13.6c-0.5-1.1-1-2.2-1.7-3.2c-1.1-2.2-1.9-4.6-3.3-6.6
			c-5.4-7.1-17.6-10.1-24.9-12.8c-1.9-0.7-3.8-1.2-5.8-1.5c-5.1-0.8-15.6-1.1-20.8-3.9c-4.4-2.4-2.1-6.3-2.6-10.7
			c-0.2-1.2-0.6-2.4-1-3.6c-1.2-4.1-3.3-6.4-5.7-9.7s-3.6-5.3-6.5-8c-5.1-4.6-12.8-7.3-19.3-9c-5.6-1.4-13.5-2.4-17.3-7.5
			c-6.5-8.8-0.2-25-13.6-28.8c-14-4-34.2,4.2-37.3,19.5c-1.1,5.5-1.3,14.8,4.3,18.3c2.4,1.4,5,2.2,7.7,2.5h3.2c0.2,0,1.3,0,1.2,0.2
			s0.9,0.8,0.7,1.2c-0.3,0.4-0.7,0.6-1.2,0.6h-0.1l-3.5,0.7c-1.4,0.3-2.7,0.7-4,1.3c-4.8,2.4-10,6-12.9,10.6
			c-4.1,6.6,3,16.8-5.1,21.7C50,83.2,44.5,82,38.2,82.3c-8.8,0.4-16.8,6.1-18,15.1c-0.4,2.6-0.5,5.2-0.1,7.8
			c0.4,2.8,1.5,5.5,3.4,7.7l3.8,5.2c0.2,0.3,0.7,0.8,0.7,1.2c-0.1,0.6-1.4,0.5-1.4,1.1c0,0.9-1.8,0.4-2.7,0.6
			c-1.5,0.4-3,0.9-4.4,1.5c-2.1,0.8-4.3,2-6.1,2.8c-3.5,1.7-9.5,4.3-10.6,8.9c0,0.1,0.2,1.8,0.3,2.6c0.3,1.3,0.8,2.6,1.5,3.8
			c0.2,0.2,0.4,0.3,0.6,0.4l5.4,2.7c3.3,1.6,8.3,3.4,10.3,6.7c0.1,0.1,0.3,1.1,0.4,1.6c0,0.1,0.5,0.5,0.5,0.8c0,0.6-1,1.1-1.5,1
			c-1-0.2-1-1.7-1.2-2.4c-0.5-0.6-1.1-1.2-1.7-1.7c-1.4-0.9-2.8-1.7-4.3-2.4c-3.2-1.7-8.3-2.7-10.3-5.6c-0.8-1.3-1.3-2.7-1.6-4.2
			c-0.3-1-0.8-2.6-0.5-3.6c2-6,7.8-8.2,13-11c3.6-2.1,7.5-3.5,11.5-4.3c-0.6-1-1.3-1.9-2-2.9c-1.4-1.8-3.2-3.4-4-5.6
			c-2.2-5.9-1.8-15,1.5-20.4c3.6-5.8,11.1-9.2,17.7-9.5c5.6-0.3,12.1,1.2,17-2.6c5.5-4.2,1.2-12.7,2.7-18.2c0.7-1.9,1.8-3.6,3.2-5
			c4.2-4.1,8-7.5,13.6-9.5c0.1,0-1.5-0.5-2.3-0.8c-2.9-1.2-5.3-2.1-7-4.8c-3.8-5.9-3.2-15.7-0.3-21.8C72,3.4,89.1-1.5,103.6,1.4"/>
		<path class="st0" d="M79.5,122.9c0,0,1.5,1.9,1.6,3c0.4,5.1,0.9,10.1,1.3,15.2c1,11.1-1.5,24.3,1.4,35.6c1.5,6,8.9,0.3,11.3-1.3
			c1-0.6,3-1.7,3.7-0.1c1.2,2.9-6.6,6.9-9,7.5c-9.3,2.3-10.5-7.7-10.6-14.4c-0.1-8.5,0.3-17.2-0.3-25.8c-0.3-5.7-0.7-11.4-1-17.1
			c-0.2-2.3,1.8-3.8,2.8-1.2"/>
		<path class="st0" d="M79.1,101c0,0,1.7,0.6,1.9,1.3c0.2,0.6,0,11.9-3.3,8.7c-0.2-0.2-1.4-0.8-1.5-1.3c-0.4-1.4,0.3-3.2,0.4-4.6
			c0-0.4,0.2-2,0.8-2.4c0.2-0.1,0.9-1.5,1.5-1.7c0.9-0.3,1.5,0.4,1.9,1"/>
		<path class="st0" d="M140.1,86.9c0,0,1.5,0.2,2.3,0.4c1,0.2,5.5,1.9,3.6,3.4c-0.9,0.8-2.8-0.6-3.6-0.8c-2.9-0.3-5.8,0.1-8.5,1.2
			c-7.9,3.1-10.7,15.4-10.9,22.9c-0.6,18.6,4,37.1,2.2,55.8l-1.5,16c-0.2,2-0.3,5-1.7,6.4c-0.2,0.1-0.3,1.5-0.7,1.9
			c-0.9,0.8-3.3,1.6-4.2,0.4c-1.3-1.7,2.6-6.7,2.8-8.9c1.2-12.7,1.6-17,2-28.9c0.5-16-5.2-33.8-1.7-49.8c2.4-11,12.7-26.1,25.6-18.1
			"/>
		<path class="st0" d="M107.8,137.3L107.8,137.3 M106.8,140.8L106.8,140.8 M139.1,137.9h0.2 M139.3,137.9c0,0,2.1,0.6,2.1,1.5
			s-1.6,2.5-2.5,2.1c-0.2-0.2-1-0.1-1.4-0.1l-13.5,1.3c-5.2,0.5-12.5,1.1-17.2-1.9c-0.5-0.5-0.8-1.1-0.9-1.8c0-0.9,0.9-1.3,1.5-1.6
			c0.2-0.1,0.4-0.1,0.4-0.1c-0.2,0.2,1.4,0.2,1.5,0.8c0,0.4,1.6,1,2.5,1c1.4,0.1,4.9,0.4,7.1,0.3c6.7-0.4,13.1-0.9,19.8-1.5"/>
		<path d="M143,91.1L143,91.1 M145.3,89.6L145.3,89.6v-0.2 M138.9,89c0,0-1.4,0.4-1.9,0c-1.1-0.8-0.1-2.1,0.8-2.5
			c2.4-1.1,5.5,1.4,7.4,2.9c0.5,1,0.9,2,1.2,3c0.4,1.2,1.9,3.8,1.4,5s-3,1.9-2.3,0.2c0.2-0.2-0.6-2-0.9-2.9
			c-0.3-1.3-0.9-2.6-1.5-3.8l0,0"/>
	</g>
</g>
</svg>
